<svg version="1.1" id="Layer_1" xmlns="http://www.w3.org/2000/svg" x="0" y="0" viewBox="0 0 512 512" xml:space="preserve"><path d="M323.961 99.53c-86.276 0-156.469 70.192-156.469 156.469 0 38.512 14.117 75.522 39.753 104.214a8.79 8.79 0 0013.107-11.711C197.6 323.037 185.07 290.185 185.07 256c0-76.586 62.307-138.893 138.893-138.893S462.856 179.414 462.856 256s-62.309 138.893-138.894 138.893c-29.154 0-57.054-8.93-80.686-25.826a8.788 8.788 0 00-10.222 14.298c26.63 19.04 58.066 29.104 90.908 29.104 86.278 0 156.469-70.192 156.469-156.469S410.238 99.53 323.961 99.53z"/><path d="M417.463 58.276H35.609C15.973 58.276 0 74.249 0 93.884v245a8.789 8.789 0 0017.576 0v-245c0-9.944 8.089-18.032 18.032-18.032h381.854a8.789 8.789 0 008.788-8.788 8.786 8.786 0 00-8.787-8.788z"/><path d="M476.392 58.276H447.93a8.789 8.789 0 000 17.576h28.462c9.943 0 18.032 8.089 18.032 18.032v324.232c0 9.943-8.089 18.032-18.032 18.032H35.609c-9.944 0-18.032-8.089-18.032-18.032v-49.938a8.789 8.789 0 00-17.576 0v49.938c0 19.635 15.973 35.608 35.609 35.608h440.783c19.635 0 35.609-15.973 35.609-35.608V93.884c-.002-19.635-15.975-35.608-35.61-35.608z"/><path d="M425.466 210.207c-16.11-10.482-36.217-12.092-53.782-4.309l-26.906 11.913a42.951 42.951 0 00-10.384-4.04v-76.224a8.789 8.789 0 00-8.788-8.788c-19.212 0-36.94 9.617-47.421 25.725-10.483 16.11-12.093 36.219-4.309 53.787l11.905 26.888a43.074 43.074 0 00-4.046 10.401h-76.21v.001a8.789 8.789 0 00-8.788 8.788c0 19.221 9.619 36.955 25.732 47.435 9.353 6.084 20.052 9.177 30.82 9.176a56.589 56.589 0 0022.961-4.881l26.884-11.909a42.979 42.979 0 0010.404 4.058v76.213a8.789 8.789 0 008.788 8.788c19.211 0 36.937-9.618 47.419-25.727 10.485-16.114 12.097-36.226 4.312-53.795l-11.907-26.894a43.112 43.112 0 004.036-10.384h76.223a8.789 8.789 0 008.788-8.788c-.003-19.22-9.621-36.952-25.731-47.434zM269.128 290.01c-12.109 5.37-25.97 4.264-37.074-2.96-8.595-5.592-14.511-14.176-16.747-23.913h65.75a43.628 43.628 0 007.593 18.227l-19.522 8.646zm23.79-125.939c5.59-8.593 14.17-14.504 23.9-16.741v65.759a43.638 43.638 0 00-18.227 7.587l-8.644-19.523c-5.366-12.113-4.256-25.975 2.971-37.082zm29.977 117.833a25.528 25.528 0 01-13.959-4.78 11.64 11.64 0 00-.268-.185c-6.67-4.879-10.642-12.682-10.642-20.936 0-.366.006-.731.028-1.097.004-.05.006-.101.008-.152a25.65 25.65 0 014.785-13.815 25.982 25.982 0 0121.108-10.88c.362 0 .724.005 1.086.028l.162.009a25.642 25.642 0 0113.809 4.789 25.965 25.965 0 0110.886 21.116c0 .36-.006.721-.028 1.072l-.009.164a25.698 25.698 0 01-4.774 13.803 26.007 26.007 0 01-21.131 10.891c-.359.001-.711-.005-1.061-.027zm32.118 66.013c-5.59 8.593-14.169 14.505-23.899 16.742v-65.761a43.666 43.666 0 0018.228-7.595l8.644 19.523c5.369 12.114 4.257 25.98-2.973 37.091zm11.854-99.065a43.635 43.635 0 00-7.594-18.236l19.53-8.648c12.111-5.367 25.973-4.256 37.079 2.97 8.595 5.592 14.509 14.177 16.746 23.913h-65.761zM139.563 116.275H48.171a8.789 8.789 0 000 17.576h91.392a8.789 8.789 0 000-17.576zm0 130.938H48.171a8.789 8.789 0 000 17.576h91.392a8.789 8.789 0 000-17.576zm0 87.291H48.171a8.789 8.789 0 000 17.576h91.392a8.789 8.789 0 000-17.576zm0-43.645H48.171a8.789 8.789 0 000 17.576h91.392a8.789 8.789 0 000-17.576zm0 87.291H48.171a8.789 8.789 0 000 17.576h91.392a8.789 8.789 0 000-17.576zm0-174.582h-9.959a8.789 8.789 0 000 17.576h9.959a8.789 8.789 0 000-17.576zm-39.252 0h-52.14a8.789 8.789 0 000 17.576h52.14a8.789 8.789 0 000-17.576zm39.252-43.647H48.171a8.789 8.789 0 000 17.576h91.392a8.789 8.789 0 000-17.576z"/></svg>