<svg width="102" height="26" fill="none" xmlns="http://www.w3.org/2000/svg"><path d="M.477 25V.39h3.937V25H.477zm5.73-11.11v-3.83h2.356c1.71 0 2.636-.832 2.777-2.496V7.14c-.164-1.852-1.09-2.825-2.777-2.918H6.207V.39h2.672c4.266.07 6.41 2.296 6.434 6.68 0 3.398-1.079 5.519-3.235 6.363-.89.304-1.957.457-3.2.457h-2.67zm11.04 4.255V6.578c0-1.242.526-2.508 1.581-3.797C20.234 1.094 22.016.238 24.172.215v3.902c-1.219.024-2.133.68-2.742 1.969-.188.422-.282.773-.282 1.055v11.004c0 1.265.657 2.203 1.97 2.812.398.188.738.281 1.019.281v3.938c-1.336 0-2.672-.48-4.008-1.442-1.899-1.406-2.86-3.27-2.883-5.59zm8.823 7.03v-3.937c.61 0 1.242-.281 1.899-.843.703-.633 1.066-1.383 1.09-2.25V7.14c0-.704-.305-1.383-.915-2.04-.585-.632-1.277-.96-2.074-.984V.215c2.367 0 4.266 1.02 5.696 3.058.82 1.172 1.23 2.274 1.23 3.305v11.567c0 2.601-1.16 4.593-3.48 5.976-1.22.703-2.368 1.055-3.446 1.055zM35.81 25V.39h3.937V25H35.81zm5.73-10.371v-3.516h1.969c2.039 0 3.164-.972 3.375-2.918.023-.21.035-.41.035-.597 0-1.97-.89-3.13-2.672-3.48a7.203 7.203 0 00-1.02-.071H41.54V.39h2.145c3.117.07 5.214 1.23 6.293 3.48.445.938.668 2.016.668 3.234-.024 2.602-.82 4.489-2.391 5.66 1.219.704 1.992 1.958 2.32 3.762.047.305.082.586.106.844l.596 7.63h-3.656l-.527-6.258c-.188-1.969-.715-3.21-1.582-3.726-.516-.258-1.16-.387-1.934-.387H41.54zM52.684 4.223V.39h15.222v3.832h-5.625V25h-3.937V4.223h-5.66zM69.945 25V.39h12.797v3.868h-8.86v6.539h5.555v3.937h-5.554v6.364h8.86V25H69.944zm15.645 0V6.648h.281l3.656 5.872V25H85.59zm0-22.078V.39h3.27l12.374 19.863V25h-1.898L85.59 2.922zm11.707 7.734V.391h3.937v16.136h-.281l-3.656-5.87z" fill="#fff"/></svg>