<svg width="320" height="320" fill="none" xmlns="http://www.w3.org/2000/svg"><path stroke="#fff" stroke-width="4" d="M2 2h316v316H2z"/><path d="M69.938 159v-43.75h7V159h-7zm10.187-19.75v-6.812h4.188c3.041 0 4.687-1.48 4.937-4.438v-.75c-.292-3.292-1.938-5.021-4.938-5.188h-4.187v-6.812h4.75c7.583.125 11.396 4.083 11.438 11.875 0 6.042-1.917 9.813-5.75 11.313-1.584.541-3.48.812-5.688.812h-4.75zm19.625 7.562V126.25c0-2.208.938-4.458 2.812-6.75 2.5-3 5.667-4.521 9.5-4.562v6.937c-2.166.042-3.791 1.208-4.874 3.5-.334.75-.5 1.375-.5 1.875v19.562c0 2.25 1.166 3.917 3.5 5 .708.334 1.312.5 1.812.5v7c-2.375 0-4.75-.854-7.125-2.562-3.375-2.5-5.083-5.812-5.125-9.938zm15.688 12.5v-7c1.083 0 2.208-.5 3.374-1.5 1.25-1.124 1.896-2.458 1.938-4V127.25c0-1.25-.542-2.458-1.625-3.625-1.042-1.125-2.271-1.708-3.687-1.75v-6.937c4.208 0 7.583 1.812 10.124 5.437 1.459 2.083 2.188 4.042 2.188 5.875v20.562c0 4.626-2.062 8.167-6.188 10.626-2.166 1.25-4.208 1.874-6.124 1.874zM132.75 159v-43.75h7V159h-7zm10.188-18.438v-6.25h3.5c3.624 0 5.624-1.729 6-5.187.041-.375.062-.729.062-1.063 0-3.5-1.583-5.562-4.75-6.187a12.856 12.856 0 00-1.812-.125h-3v-6.5h3.812c5.542.125 9.271 2.188 11.188 6.188.791 1.666 1.187 3.583 1.187 5.75-.042 4.624-1.458 7.979-4.25 10.062 2.167 1.25 3.542 3.479 4.125 6.688.083.541.146 1.041.188 1.5L160.25 159h-6.5l-.938-11.125c-.333-3.5-1.27-5.708-2.812-6.625-.917-.458-2.062-.688-3.438-.688h-3.624zm19.812-18.5v-6.812h27.062v6.812h-10V159h-7v-36.938H162.75zM193.438 159v-43.75h22.75v6.875h-15.75v11.625h9.874v7h-9.874v11.312h15.75V159h-22.75zm27.812 0v-32.625h.5l6.5 10.437V159h-7zm0-39.25v-4.5h5.812l22 35.312V159h-3.374l-24.438-39.25zm20.812 13.75v-18.25h7v28.688h-.5l-6.5-10.438zM80.75 203.362c-.44.337-.998.572-1.673.704-.674.132-1.393.198-2.156.198a7.217 7.217 0 01-2.596-.462 5.81 5.81 0 01-2.112-1.452c-.6-.645-1.078-1.467-1.43-2.464-.352-1.012-.528-2.207-.528-3.586 0-1.437.191-2.655.572-3.652.396-1.012.91-1.833 1.54-2.464.646-.645 1.364-1.115 2.156-1.408a6.925 6.925 0 012.42-.44c.88 0 1.6.051 2.156.154a6.523 6.523 0 011.43.374l-.44 1.606c-.704-.337-1.708-.506-3.014-.506a5.04 5.04 0 00-1.782.33 4.18 4.18 0 00-1.584 1.078c-.454.499-.82 1.151-1.1 1.958-.278.807-.418 1.797-.418 2.97 0 1.056.132 1.98.396 2.772.264.792.624 1.452 1.078 1.98.47.528 1.012.924 1.628 1.188a5.247 5.247 0 002.046.396c.66 0 1.232-.066 1.716-.198a4.76 4.76 0 001.254-.506l.44 1.43zm9.415-3.63h-5.676L82.949 204h-1.804l5.83-15.642h.836L93.663 204h-1.914l-1.584-4.268zm-5.082-1.584h4.532l-1.716-4.686-.55-2.332h-.022l-.55 2.376-1.694 4.642zm19.843-1.21h-7.392V204h-1.826v-15.4h1.826v6.71h7.392v-6.71h1.826V204h-1.826v-7.062zm8.423-.066h-1.034V204h-1.826v-15.4h1.826v7.172l.99-.308 5.17-6.864h2.112l-5.148 6.622-.924.726 1.122.88 5.632 7.172h-2.31l-5.61-7.128zm20.297-6.644h-4.796V204h-1.826v-13.772h-4.796V188.6h11.418v1.628zm-.16 6.622h5.324v1.628h-5.324v-1.628zm17.431-6.622h-7.106V204h-1.826v-15.4h10.758V204h-1.826v-13.772zm5.57-1.628h8.382v1.628h-6.556v5.038h6.006v1.628h-6.006v5.478h6.666V204h-8.492v-15.4zm21.739 1.628h-4.796V204h-1.826v-13.772h-4.796V188.6h11.418v1.628zm2.259-1.628h8.382v1.628h-6.556v5.038h6.006v1.628h-6.006v5.478h6.666V204h-8.492v-15.4zm11.795.154a11.11 11.11 0 011.804-.264 28.118 28.118 0 011.914-.066c.675 0 1.357.066 2.046.198a5.578 5.578 0 011.914.726 3.997 3.997 0 011.386 1.452c.367.616.55 1.401.55 2.354 0 .939-.169 1.731-.506 2.376a4.561 4.561 0 01-1.342 1.584 5.54 5.54 0 01-1.914.858 9.307 9.307 0 01-2.222.264h-.902l-.528-.044a3.767 3.767 0 01-.374-.044V204h-1.826v-15.246zm3.762 1.254c-.381 0-.748.007-1.1.022a3.727 3.727 0 00-.836.11v6.38c.073.029.191.051.352.066.161 0 .33.007.506.022h.858c.499 0 .99-.044 1.474-.132a4.025 4.025 0 001.342-.528 2.65 2.65 0 00.946-1.056c.249-.455.374-1.034.374-1.738 0-.601-.117-1.1-.352-1.496a2.499 2.499 0 00-.902-.968 3.575 3.575 0 00-1.254-.528 6.55 6.55 0 00-1.408-.154zm8.527-1.408h8.36v1.628h-6.534v4.62c.25-.044.558-.088.924-.132a8.879 8.879 0 011.056-.066c.748 0 1.46.073 2.134.22a4.934 4.934 0 011.782.704c.514.337.917.799 1.21 1.386.308.572.462 1.298.462 2.178 0 .88-.154 1.643-.462 2.288a4.482 4.482 0 01-1.232 1.562 5.467 5.467 0 01-1.804.902 7.795 7.795 0 01-2.134.286c-.249 0-.535-.007-.858-.022-.308 0-.638-.015-.99-.044a23.335 23.335 0 01-1.012-.11 5.52 5.52 0 01-.902-.154V188.6zm3.982 13.992c.47 0 .917-.066 1.342-.198a3.265 3.265 0 001.1-.572c.323-.264.572-.594.748-.99.191-.396.286-.858.286-1.386 0-.675-.11-1.217-.33-1.628a2.425 2.425 0 00-.836-.99 3.022 3.022 0 00-1.232-.462 7.506 7.506 0 00-1.43-.132c-.132 0-.286.007-.462.022l-.528.044a4.467 4.467 0 00-.484.066 3.784 3.784 0 00-.33.044v6.05c.103.029.235.051.396.066l.55.044c.206.015.411.022.616.022h.594zm12.448-5.874l.572 1.958h.11l.44-2.024 2.948-8.052h1.87l-3.894 10.01a59.262 59.262 0 01-1.056 2.618c-.293.689-.594 1.254-.902 1.694-.308.425-.638.733-.99.924-.352.176-.785.264-1.298.264-.484 0-.873-.037-1.166-.11a3.259 3.259 0 01-.792-.374l.55-1.518c.293.161.565.264.814.308.249.044.477.066.682.066.411 0 .755-.205 1.034-.616.279-.425.521-1.049.726-1.87l-5.698-11.396h2.112l3.938 8.118zm7.826-7.964a11.11 11.11 0 011.804-.264 28.118 28.118 0 011.914-.066c.675 0 1.357.066 2.046.198a5.578 5.578 0 011.914.726 3.997 3.997 0 011.386 1.452c.367.616.55 1.401.55 2.354 0 .939-.169 1.731-.506 2.376a4.561 4.561 0 01-1.342 1.584 5.54 5.54 0 01-1.914.858 9.307 9.307 0 01-2.222.264h-.902l-.528-.044a3.767 3.767 0 01-.374-.044V204h-1.826v-15.246zm3.762 1.254c-.381 0-.748.007-1.1.022a3.727 3.727 0 00-.836.11v6.38c.073.029.191.051.352.066.161 0 .33.007.506.022h.858c.499 0 .99-.044 1.474-.132a4.025 4.025 0 001.342-.528 2.65 2.65 0 00.946-1.056c.249-.455.374-1.034.374-1.738 0-.601-.117-1.1-.352-1.496a2.499 2.499 0 00-.902-.968 3.575 3.575 0 00-1.254-.528 6.55 6.55 0 00-1.408-.154zm16.777.22h-6.424V204h-1.826v-15.4h8.25v1.628z" fill="#fff"/><path stroke="#fff" stroke-width="2" d="M70 174h179"/></svg>