<svg width="14" height="14" fill="none" xmlns="http://www.w3.org/2000/svg"><path d="M10.6 13.667A10.28 10.28 0 01.333 3.4 3.067 3.067 0 013.4.333c.172-.001.344.015.513.047.164.024.325.064.48.12a.667.667 0 01.434.5l.913 4a.667.667 0 01-.173.613c-.087.094-.094.1-.914.527A6.607 6.607 0 007.9 9.4c.433-.827.44-.833.533-.92a.667.667 0 01.614-.173l4 .913a.667.667 0 01.48.433 2.888 2.888 0 01.166.994 3.067 3.067 0 01-3.093 3.02zm-7.2-12A1.74 1.74 0 001.667 3.4a8.94 8.94 0 008.933 8.933 1.74 1.74 0 001.733-1.733v-.22L9.24 9.667l-.193.366c-.3.58-.52 1-1.08.774A7.901 7.901 0 013.18 6c-.24-.52.213-.76.787-1.06l.366-.18-.713-3.093H3.4z" fill="#969696"/></svg>